<?xml version="1.0" encoding="utf-8"?>
<!-- Generator: Adobe Illustrator 19.2.1, SVG Export Plug-In . SVG Version: 6.00 Build 0)  -->
<svg version="1.1" id="Layer_1" xmlns="http://www.w3.org/2000/svg" xmlns:xlink="http://www.w3.org/1999/xlink" x="0px" y="0px"
	 viewBox="0 0 552.8 271.4" style="enable-background:new 0 0 552.8 271.4;" xml:space="preserve">
<style type="text/css">
	.st0{fill:#F9F9F7;}
	.st1{fill:#0085CC;}
	.st2{fill:#6BB437;}
</style>
<title>PCI-short</title>
<path class="st0" d="M282.7,68.8c13.5-2.7,27.2-4,40.9-4.1c21,0,36.7,4.3,47.1,12.8s15.7,21.7,15.7,39.6c0,35-21.3,52.6-63.8,52.6
	c-6.3,0-12.4-0.2-18.3-0.7v48.5h-21.6V68.8z M355.1,144.2c6.7-5.7,10-14.6,10-26.8c0-12.4-3.3-21.4-9.8-27.2
	c-6.5-5.7-16.5-8.6-30.1-8.6c-7,0-14.1,0.6-21,1.7v68.1c6.2,0.8,12.4,1.2,18.7,1.2C337.6,152.7,348.3,149.9,355.1,144.2"/>
<path class="st0" d="M423.5,201c-12.3-12.3-18.4-31.9-18.4-58.8c0-26.3,6.3-45.9,18.8-58.6c12.6-12.8,30.6-19.1,54.3-19.1
	c11,0,21.9,1.4,32.6,4.2V87c-10.2-2.8-20.8-4.2-31.3-4.2c-11.5,0-21.1,2-28.7,5.9c-7.6,3.9-13.4,10.2-17.3,18.9
	c-3.9,8.7-5.8,20.1-5.8,34.2c0,14.6,2,26.2,5.9,34.9c3.9,8.7,9.6,14.9,17,18.7c7.4,3.7,16.7,5.6,27.9,5.6c5.4,0,10.7-0.4,16-1.3
	c5.6-1,11-2.3,16.4-4.2V214c-11,3.7-22.6,5.5-34.2,5.4C453.4,219.4,435.8,213.2,423.5,201"/>
<rect x="531.2" y="66.4" class="st0" width="21.6" height="151.1"/>
<path class="st1" d="M207.3,94.9c0,0,0-0.1,0-0.1C202.9,44.5,163.1,4.5,112.8,0h-0.1c-0.2,0-0.4,0-0.6,0c-4.4,0-8,3.5-8,7.9
	c0,4,3,7.4,7,7.9l0.1,0.1c42.7,3.7,76.5,37.6,80.2,80.3c0,0.1,0,0.1,0.1,0.2c0.5,4.4,4.4,7.5,8.8,7c4-0.4,7-3.8,7.1-7.8
	C207.3,95.3,207.3,95.1,207.3,94.9"/>
<path class="st2" d="M159.9,222.1c0-4.4-3.6-8-8-8c-1,0-2,0.2-3,0.6l0,0c-29,11.8-61.5,11.8-90.5,0l0,0c-4-2-8.8-0.3-10.7,3.6
	c-2,4-0.3,8.8,3.6,10.7c0.4,0.2,0.8,0.4,1.2,0.5c32.7,13.3,69.4,13.3,102.1,0c0.2-0.1,0.4-0.1,0.6-0.2l0,0
	C158.1,228.1,159.9,225.3,159.9,222.1"/>
<path class="st2" d="M136.1,252.2c-0.5,0-1.1,0.1-1.6,0.2l0,0c-20.4,4.2-41.4,4.2-61.7,0l0,0c-4.4-0.5-8.3,2.7-8.8,7.1
	c-0.4,3.8,1.9,7.3,5.5,8.5h0.2c22.4,4.6,45.5,4.6,67.9,0h0.2c4.3-1.1,6.8-5.5,5.7-9.7C142.7,254.8,139.7,252.3,136.1,252.2"/>
<path class="st1" d="M191.1,159.9c0.4-0.6,0.8-1.2,1-1.9l-18.8-0.7c-29.6,38.5-84.9,45.8-123.4,16.1c-19.7-15.1-32.1-37.9-34.1-62.7
	v-0.2c-0.5-4.4-4.4-7.5-8.8-7c-4,0.4-7,3.8-7.1,7.8v0.4c0,0.1,0,0.1,0,0.2c4.6,57.3,54.7,100,112,95.4
	C144.3,204.8,173.6,187.2,191.1,159.9"/>
<path class="st1" d="M74.9,152.3c1.2,4.3,5.6,6.8,9.8,5.6c1.3-0.4,2.5-1.1,3.5-2l19.9-19.9l0,0c2.8-3.4,2.3-8.5-1.1-11.3
	c-2.9-2.4-7.1-2.4-10-0.1l0,0l-10.3,10.2L68.7,68l66.8,17.9l-10.3,10.3l0,0c-2.9,3.2-2.8,8.1,0.3,11.1l48.8,48.8
	c-0.3,0.4-0.7,0.9-1,1.3l0,0l18.8,0.7c0.4-0.9,0.6-1.9,0.6-2.9c0-2-0.8-3.9-2.1-5.4l0,0l-48.1-48.2l14.1-14.2
	c3.1-3.1,3.1-8.2,0-11.3c-1-1-2.2-1.7-3.6-2.1L59.5,49c-4.3-1.1-8.6,1.4-9.8,5.7c-0.3,1.3-0.3,2.7,0,4L74.9,152.3z"/>
</svg>
