<svg id="Layer_1" data-name="Layer 1" xmlns="http://www.w3.org/2000/svg" viewBox="0 0 69.67 66.28"><defs><style>.cls-1{fill:#008dd2;}</style></defs><title>protolab-icon-blue</title><path class="cls-1" d="M256.1,96.89a1.41,1.41,0,0,1-1-2.4l8.21-8.19a1.41,1.41,0,1,1,2,2l-8.21,8.19a1.4,1.4,0,0,1-1,.41" transform="translate(-242.08 -36.41)"/><path class="cls-1" d="M263.41,86.4l-8.21,8.19a1.27,1.27,0,0,0,1.8,1.8l8.2-8.19a1.27,1.27,0,1,0-1.79-1.8" transform="translate(-242.08 -36.41)"/><path class="cls-1" d="M252.51,93.32a1.41,1.41,0,0,1-1-2.4l8.21-8.19a1.41,1.41,0,0,1,2,2l-8.21,8.19a1.4,1.4,0,0,1-1,.41" transform="translate(-242.08 -36.41)"/><path class="cls-1" d="M261.62,82.83a1.27,1.27,0,0,0-1.8,0L251.62,91a1.27,1.27,0,0,0,1.79,1.8l8.21-8.19a1.27,1.27,0,0,0,0-1.79" transform="translate(-242.08 -36.41)"/><path class="cls-1" d="M254.31,102.69a8.93,8.93,0,0,1-6.56-2.83,9.21,9.21,0,0,1,.42-12.74l9.77-9.75a4,4,0,0,1,2.82-1.14,3.9,3.9,0,0,1,1.58.33l0.16-.17a3.94,3.94,0,0,1,.82-4.39l1.79-1.79a1.4,1.4,0,0,1,2,0l4.38,4.37,2.1-2.09L261.89,60.93l-7.41,7.5a1.41,1.41,0,0,1-1,.45,1.61,1.61,0,0,1-1.13-.54c-1.06-1.06-9.79-9.7-9.88-9.79a1.5,1.5,0,0,1,0-2l17.16-17.28a1.54,1.54,0,0,1,1-.39,1.94,1.94,0,0,1,.79.18,11.25,11.25,0,0,0,4.7,1.13c0.26,0,.53,0,0.79,0,2.46-.21,5.91-1.29,7.1-2.23a2.17,2.17,0,0,1,1.24-.47,0.82,0.82,0,0,1,.67.29c0.19,0.25,3.3,3.31,3.56,3.53a1.42,1.42,0,0,1,.4,1,1.21,1.21,0,0,1-.4.94c-0.63.6-8.2,8.26-9.15,9.22l11.73,11.58,19-19a1.4,1.4,0,0,1-.25-1.33l0.9-2.68a1.41,1.41,0,0,1,.34-0.55l3.58-3.58a1.41,1.41,0,0,1,2,0l3.58,3.58a1.4,1.4,0,0,1,0,2L307.7,46a1.39,1.39,0,0,1-.55.34l-2.69.89a1.36,1.36,0,0,1-.44.07,1.4,1.4,0,0,1-.89-0.32l-19,19L311,92.44h0s1.84,2.72-.25,4.86-3.78,3.82-3.8,3.84a3.43,3.43,0,0,1-2.15.84,3.11,3.11,0,0,1-2.05-.83c-1.24-1.07-15.44-15.07-27.17-26.68l-2.11,2.1,4.38,4.37a1.41,1.41,0,0,1,.41,1,1.39,1.39,0,0,1-.41,1L276,84.72a4,4,0,0,1-2.82,1.14,3.9,3.9,0,0,1-1.57-.33l-0.17.16a3.94,3.94,0,0,1-.81,4.39l-10,10a9,9,0,0,1-6.37,2.63M260.72,79a1.12,1.12,0,0,0-.8.33l-9.77,9.75a6.39,6.39,0,0,0-.36,8.83,6.2,6.2,0,0,0,8.89.14l10-10a1.12,1.12,0,0,0,0-1.59,1.39,1.39,0,0,1-.41-1,1.41,1.41,0,0,1,.41-1l1.79-1.79a1.41,1.41,0,0,1,2,0,1.16,1.16,0,0,0,1.6,0l0.79-.79-8.76-8.74-0.8.8a1.12,1.12,0,0,0,0,1.59,1.41,1.41,0,0,1,0,2l-1.79,1.79a1.41,1.41,0,0,1-2,0,1.12,1.12,0,0,0-.8-0.33M304,99.09a0.81,0.81,0,0,0,.56.26,0.92,0.92,0,0,0,.6-0.26c0.75-.66,3.91-3.76,3.94-3.79a0.64,0.64,0,0,0,0-.93c-0.26-.27-9.55-9.46-26.88-26.57l-4.88,4.87ZM275.38,70.68l4.87-4.87L268.53,54.24l-4.83,4.87Zm-22-5.07,23.56-23.32-2-2a15.17,15.17,0,0,1-8.25,2.41,16.37,16.37,0,0,1-5.8-1.09L245.2,57.39Zm51-21.36,1.55-.52,2.35-2.35L306.7,39.8l-2.35,2.35-0.51,1.54Z" transform="translate(-242.08 -36.41)"/></svg>