<?xml version="1.0" encoding="utf-8"?>
<!-- Generator: Adobe Illustrator 19.2.1, SVG Export Plug-In . SVG Version: 6.00 Build 0)  -->
<svg version="1.1" id="Capa_1" xmlns="http://www.w3.org/2000/svg" xmlns:xlink="http://www.w3.org/1999/xlink" x="0px" y="0px"
	 viewBox="0 0 480 480" style="enable-background:new 0 0 480 480;" xml:space="preserve">
<style type="text/css">
	.st0{fill:#008DD2;}
</style>
<g>
	<g>
		<path class="st0" d="M472,88H352V40c0-22.1-17.9-40-40-40H168c-22.1,0-40,17.9-40,40v48H8c-4.4,0-8,3.6-8,8v104v240
			c0,22.1,17.9,40,40,40h400c22.1,0,40-17.9,40-40V200V96C480,91.6,476.4,88,472,88z M144,40c0-13.2,10.8-24,24-24h144
			c13.2,0,24,10.8,24,24v48h-16V40c0-4.4-3.6-8-8-8H168c-4.4,0-8,3.6-8,8v48h-16V40z M304,48v40H176V48H304z M136,368v96h-32v-96
			c0-2.4-1.1-4.6-2.9-6.1L56,324.3v-40.4l24-19.2V304c0,2.5,1.2,4.9,3.2,6.4l32,24c2.8,2.1,6.8,2.1,9.6,0l32-24
			c2-1.5,3.2-3.9,3.2-6.4v-39.4l24,19.2v40.4l-45.1,37.6C137.1,363.4,136,365.6,136,368z M304,464h-80v-16h80V464z M253.7,322.3
			L241,309.7l13-45.7H274l13,45.7l-12.7,12.7c-1.5,1.5-2.3,3.5-2.3,5.7v104h-16V328C256,325.9,255.2,323.8,253.7,322.3z M416,464
			h-24v-16h-16v16h-24v-12.7l29.7-29.7c1.6-1.6,2.3-3.6,2.3-5.7c0,2,0.8,4.1,2.3,5.7l29.7,29.7V464z M376,404.7l-24-24v-65.4
			l19.3-19.3h4.7V404.7z M464,440c0,13.2-10.8,24-24,24h-8v-16c0-2.1-0.8-4.2-2.3-5.7L403.3,416l26.3-26.3c1.5-1.5,2.3-3.5,2.3-5.7
			v-72c0-2.1-0.8-4.2-2.3-5.7l-24-24c-1.5-1.5-3.5-2.3-5.7-2.3h-16h-16c-2.1,0-4.2,0.8-5.7,2.3l-24,24c-1.5,1.5-2.3,3.5-2.3,5.7v72
			c0,2.1,0.8,4.2,2.3,5.7l26.3,26.3l-26.3,26.3c-1.5,1.5-2.3,3.5-2.3,5.7v16h-16v-24c0-4.4-3.6-8-8-8h-24V331.3l13.7-13.7
			c2.1-2.1,2.8-5.1,2-7.9l-16-56c-1-3.4-4.1-5.8-7.7-5.8h-32c-3.6,0-6.7,2.4-7.7,5.8l-16,56c-0.8,2.8,0,5.8,2,7.9l13.7,13.7V432h-24
			c-4.4,0-8,3.6-8,8v24h-56v-92.3l45.1-37.6c1.8-1.5,2.9-3.8,2.9-6.1v-48c0-2.4-1.1-4.7-3-6.2l-40-32c-2.4-1.9-5.7-2.3-8.5-1
			c-2.8,1.3-4.5,4.1-4.5,7.2v52l-24,18l-24-18v-52c0-3.1-1.8-5.9-4.5-7.2c-2.8-1.3-6.1-1-8.5,1l-40,32c-1.9,1.5-3,3.8-3,6.2v48
			c0,2.4,1.1,4.6,2.9,6.1L88,371.7V464H40c-13.2,0-24-10.8-24-24V208h448V440z M392,404.7V296h4.7l19.3,19.3v65.4L392,404.7z
			 M464,192H16v-88h120h32h144h32h120V192z"/>
	</g>
</g>
<g>
	<g>
		<rect x="200" y="152" class="st0" width="16" height="16"/>
	</g>
</g>
<g>
	<g>
		<rect x="232" y="152" class="st0" width="16" height="16"/>
	</g>
</g>
<g>
	<g>
		<rect x="264" y="152" class="st0" width="16" height="16"/>
	</g>
</g>
</svg>
